<?xml version="1.0" standalone="no"?>
<!DOCTYPE svg PUBLIC "-//W3C//DTD SVG 20010904//EN"
 "http://www.w3.org/TR/2001/REC-SVG-20010904/DTD/svg10.dtd">
<svg version="1.0" xmlns="http://www.w3.org/2000/svg"
 width="500.000000pt" height="500.000000pt" viewBox="0 0 500.000000 500.000000"
 preserveAspectRatio="xMidYMid meet">

<g transform="translate(0.000000,500.000000) scale(0.100000,-0.100000)"
fill="#000000" stroke="none">
<path d="M0 2500 l0 -2500 2500 0 2500 0 0 2500 0 2500 -2500 0 -2500 0 0
-2500z m511 352 c69 -36 99 -84 99 -162 0 -63 -25 -114 -65 -132 -32 -14 -31
-19 5 -40 44 -25 70 -74 70 -133 0 -117 -84 -181 -249 -192 l-91 -6 0 60 0 60
73 5 c39 3 84 11 99 18 36 17 50 57 33 98 -18 42 -60 52 -212 52 l-123 0 0
200 0 200 154 0 c149 0 155 -1 207 -28z m487 13 c78 -33 115 -90 116 -180 1
-92 -28 -137 -122 -191 -2 -1 27 -66 63 -144 36 -78 65 -146 65 -152 0 -5 -29
-8 -65 -6 l-65 3 -67 143 -66 142 -38 0 -39 0 0 -145 0 -146 -62 3 -63 3 -3
203 -2 202 145 0 c142 0 147 1 170 25 47 46 25 116 -43 135 -20 5 -90 10 -154
10 l-118 0 0 55 0 55 155 0 c118 0 165 -4 193 -15z m567 -325 c70 -179 129
-331 132 -337 4 -10 -12 -13 -60 -13 -52 0 -66 3 -72 18 -4 9 -34 94 -67 187
-33 94 -63 174 -68 178 -7 8 -23 -35 -116 -300 l-29 -83 -62 0 c-35 0 -63 4
-63 9 0 5 55 153 123 328 68 175 127 327 131 337 4 12 10 16 16 10 5 -5 66
-155 135 -334z m695 280 l0 -60 -111 0 c-134 0 -182 -13 -230 -61 -88 -88 -72
-277 29 -344 21 -13 62 -29 91 -35 96 -18 91 -23 91 85 l0 95 -65 0 -65 0 0
60 0 60 130 0 130 0 0 -217 0 -216 -124 7 c-172 9 -243 31 -311 100 -65 65
-88 127 -88 241 0 44 5 98 11 120 28 101 111 179 222 209 33 9 103 15 173 15
l117 1 0 -60z m361 49 c99 -30 153 -129 130 -235 -24 -105 -84 -145 -231 -154
l-95 -5 -5 -140 -5 -140 -60 0 -60 0 -3 203 -2 202 145 0 c142 0 147 1 170 25
30 29 32 74 6 106 -18 23 -25 24 -170 27 l-151 3 0 60 0 59 146 0 c81 0 164
-5 185 -11z m622 -5 c64 -22 140 -92 174 -162 25 -51 28 -67 28 -162 0 -123
-16 -169 -86 -245 -52 -56 -96 -80 -175 -94 -118 -22 -232 16 -309 101 -141
157 -98 449 80 540 22 12 51 24 65 29 45 13 174 10 223 -7z m457 -269 l0 -285
40 0 40 0 0 -60 0 -61 -142 3 -143 3 0 55 0 55 43 3 42 3 0 285 0 284 60 0 60
0 0 -285z m387 60 c85 -121 158 -221 164 -223 5 -2 9 86 9 222 l0 226 60 0 60
0 0 -345 0 -346 -62 3 -62 3 -161 229 -160 229 -3 -147 -3 -146 -64 0 -65 0 0
260 0 261 67 -3 66 -3 154 -220z m743 170 l0 -55 -205 0 -205 0 0 55 0 55 205
0 205 0 0 -55z m-142 -412 l-3 -218 -60 0 -60 0 -3 218 -2 217 65 0 65 0 -2
-217z"/>
<path d="M270 2686 l0 -86 70 0 c111 0 163 40 139 107 -14 42 -45 56 -131 61
l-78 5 0 -87z"/>
<path d="M3055 2759 c-137 -51 -186 -242 -94 -369 52 -72 153 -99 237 -65 85
36 126 106 127 215 0 90 -27 148 -91 193 -46 32 -129 44 -179 26z m107 -176
c39 -35 13 -103 -39 -103 -57 0 -82 61 -43 100 24 24 57 26 82 3z"/>
</g>
</svg>
